#!OML:ASF F:\VICON\USERDATA\INSTALL\rory3\rory3.ASF
:FULLY-SPECIFIED
:DEGREES
61
root 1.12457 17.8111 -17.0278 6.168 -2.99865 0.159525
lowerback 5.6708 -0.569889 -1.74827
upperback -0.399606 -0.807962 1.99653
thorax -3.54143 -0.350399 3.11686
lowerneck -17.3148 -5.44186 -10.5962
upperneck 17.2917 -6.20822 7.24793
head 8.82909 -2.8832 3.40613
rclavicle -1.53064e-014 0
rhumerus -30.8885 -5.75164 -82.4994
rradius 33.3234
rwrist 3.76701
rhand -9.61018 15.2421
rfingers 7.12502
rthumb 16.359 -14.088
lclavicle -1.53064e-014 0
lhumerus -31.0657 5.30081 84.8634
lradius 31.9529
lwrist -8.30805
lhand -18.4264 19.468
lfingers 7.12502
lthumb 7.85883 49.302
rfemur -11.1143 6.01711 21.0297
rtibia 21.4341
rfoot -11.0765 -9.48201
rtoes 3.20199
lfemur -11.4547 -1.53729 -21.424
ltibia 21.0442
lfoot -12.0982 6.75509
ltoes 2.61985
62
root 1.12547 17.8142 -17.0298 6.1615 -3.05974 0.148537
lowerback 5.67679 -0.544184 -1.72819
upperback -0.36195 -0.772857 1.98936
thorax -3.50848 -0.334275 3.09472
lowerneck -17.4352 -5.44613 -10.58
upperneck 17.3625 -6.20692 7.23878
head 8.87378 -2.88024 3.3994
rclavicle -7.95139e-015 1.59028e-014
rhumerus -30.8439 -5.72757 -82.5321
rradius 33.3779
rwrist 3.77085
rhand -9.69728 15.0581
rfingers 7.12502
rthumb 16.2751 -14.2789
lclavicle -7.95139e-015 1.59028e-014
lhumerus -30.9476 5.26039 84.8875
lradius 31.8917
lwrist -8.29385
lhand -15.4266 23.0029
lfingers 7.12502
lthumb 10.7533 52.7077
rfemur -11.0973 6.11321 21.0115
rtibia 21.4003
rfoot -11.0994 -9.40783
rtoes 4.40243
lfemur -11.4486 -1.55041 -21.4228
ltibia 21.0722
lfoot -12.1113 6.85212
ltoes 2.43128
63
root 1.1241 17.812 -17.03 6.1569 -3.07142 0.158472
lowerback 5.6398 -0.536349 -1.76657
upperback -0.341581 -0.764488 1.99909
thorax -3.46654 -0.330169 3.1249
lowerneck -17.4326 -5.445 -10.5917
upperneck 17.3858 -6.19539 7.20097
head 8.87935 -2.87969 3.39
rclavicle -1.6201e-014 7.95139e-016
rhumerus -30.8349 -5.72801 -82.5281
rradius 33.4084
rwrist 3.7112
rhand -9.73775 15.0461
rfingers 7.12502
rthumb 16.2362 -14.2941
lclavicle -1.6201e-014 7.95139e-016
lhumerus -30.9546 5.16991 84.9339
lradius 31.9328
lwrist -8.195
lhand -19.0778 18.9742
lfingers 7.12502
lthumb 7.23007 48.8307
rfemur -11.0809 6.09571 21.0247
rtibia 21.3849
rfoot -10.9959 -9.46686
rtoes 3.50444
lfemur -11.4835 -1.57499 -21.4284
ltibia 21.1139
lfoot -12.1126 6.86849
ltoes 2.35879
64
root 1.12388 17.8106 -17.03 6.1781 -3.0374 0.116863
lowerback 5.6167 -0.546054 -1.71746
upperback -0.359883 -0.773316 2.0128
thorax -3.47233 -0.335057 3.11198
lowerneck -17.3509 -5.43768 -10.6303
upperneck 17.3517 -6.19002 7.23747
head 8.85514 -2.87756 3.41061
rclavicle 1.04362e-014 7.95139e-016
rhumerus -30.8443 -5.72592 -82.5257
rradius 33.3804
rwrist 3.64338
rhand -9.72645 15.2637
rfingers 7.12502
rthumb 16.2471 -14.0756
lclavicle 1.04362e-014 7.95139e-016
lhumerus -31.0007 5.14733 84.9319
lradius 31.9258
lwrist -8.26284
lhand -15.5706 22.9399
lfingers 7.12502
lthumb 10.6143 52.6519
rfemur -11.1047 5.93112 21.0979
rtibia 21.3863
rfoot -10.9159 -9.44604
rtoes 2.51147
lfemur -11.5524 -1.60184 -21.3762
ltibia 21.1679
lfoot -12.0898 6.79379
ltoes 2.59747
65
root 1.12476 17.809 -17.0295 6.16631 -3.05598 0.116887
lowerback 5.61942 -0.525914 -1.6982
upperback -0.327807 -0.745541 2.00863
thorax -3.44277 -0.322405 3.09408
lowerneck -17.4358 -5.48013 -10.6255
upperneck 17.2902 -6.23371 7.21986
head 8.85283 -2.89729 3.39579
rclavicle -7.50412e-015 2.14687e-014
rhumerus -30.7788 -5.76758 -82.5275
rradius 33.3989
rwrist 3.68528
rhand -9.73143 15.4445
rfingers 7.12502
rthumb 16.2423 -13.8951
lclavicle -7.50412e-015 2.14687e-014
lhumerus -30.9712 5.16688 84.9569
lradius 31.9126
lwrist -8.389
lhand -19.4053 18.5287
lfingers 7.12502
lthumb 6.91393 48.3958
rfemur -11.1008 5.8937 21.1
rtibia 21.3889
rfoot -10.9249 -9.39107
rtoes 2.52523
lfemur -11.5636 -1.60871 -21.381
ltibia 21.2329
lfoot -12.0945 6.70611
ltoes 3.13559
